<svg width="32" height="32" viewBox="0 0 32 32" fill="none" xmlns="http://www.w3.org/2000/svg">
<rect width="32" height="32" rx="16" fill="#755400" fill-opacity="0.12"/>
<path d="M20.9043 11.367V13.769C20.9043 14.4346 20.369 14.9699 19.7033 14.9699H14.0347C13.7671 14.9699 13.4994 14.8739 13.2867 14.7092L11.7837 13.5082C11.1867 13.0278 11.1867 12.1082 11.7837 11.6278L13.2867 10.4268C13.4994 10.2621 13.7671 10.166 14.0347 10.166H19.7033C20.369 10.166 20.9043 10.7013 20.9043 11.367Z" fill="#FFB800"/>
<path opacity="0.4" d="M20.4721 20.3715L18.9761 21.5724C18.7633 21.7371 18.4957 21.8332 18.2212 21.8332H12.5525C11.8869 21.8332 11.3516 21.2979 11.3516 20.6322V18.2303C11.3516 17.5646 11.8869 17.0293 12.5525 17.0293H18.2212C18.4957 17.0293 18.7633 17.1254 18.9761 17.2901L20.4721 18.4911C21.0761 18.9715 21.0761 19.8911 20.4721 20.3715Z" fill="#FFB800"/>
</svg>
