<svg width="44" height="44" viewBox="0 0 44 44" fill="none" xmlns="http://www.w3.org/2000/svg">
<rect width="44" height="44" rx="22" fill="#7E2DFF"/>
<path d="M22 18V31M13 19C13 18.7348 13.1054 18.4804 13.2929 18.2929C13.4804 18.1054 13.7348 18 14 18H30C30.2652 18 30.5196 18.1054 30.7071 18.2929C30.8946 18.4804 31 18.7348 31 19V21C31 21.2652 30.8946 21.5196 30.7071 21.7071C30.5196 21.8946 30.2652 22 30 22H14C13.7348 22 13.4804 21.8946 13.2929 21.7071C13.1054 21.5196 13 21.2652 13 21V19Z" stroke="white" stroke-width="2" stroke-linecap="round" stroke-linejoin="round"/>
<path d="M29 22.0004V29.0004C29 29.5309 28.7893 30.0396 28.4142 30.4146C28.0391 30.7897 27.5304 31.0004 27 31.0004H17C16.4696 31.0004 15.9609 30.7897 15.5858 30.4146C15.2107 30.0396 15 29.5309 15 29.0004V22.0004M17.5 18.0004C16.837 18.0004 16.2011 17.737 15.7322 17.2682C15.2634 16.7994 15 16.1635 15 15.5004C15 14.8374 15.2634 14.2015 15.7322 13.7327C16.2011 13.2638 16.837 13.0004 17.5 13.0004C18.4647 12.9836 19.41 13.4517 20.2127 14.3436C21.0154 15.2355 21.6383 16.5098 22 18.0004C22.3617 16.5098 22.9846 15.2355 23.7873 14.3436C24.59 13.4517 25.5353 12.9836 26.5 13.0004C27.163 13.0004 27.7989 13.2638 28.2678 13.7327C28.7366 14.2015 29 14.8374 29 15.5004C29 16.1635 28.7366 16.7994 28.2678 17.2682C27.7989 17.737 27.163 18.0004 26.5 18.0004" stroke="white" stroke-width="2" stroke-linecap="round" stroke-linejoin="round"/>
</svg>
