<svg width="20" height="20" viewBox="0 0 20 20" fill="none" xmlns="http://www.w3.org/2000/svg">
<path d="M6.66699 7.5L10.0003 7.5" stroke="#2D5BFF" stroke-width="1.25" stroke-linecap="round"/>
<path d="M2.40417 12.626L3.01075 12.4754L2.40417 12.626ZM2.40417 7.37396L3.01075 7.52458L2.40417 7.37396ZM17.5952 7.37396L18.2018 7.22334L17.5952 7.37396ZM17.5952 12.626L16.9886 12.4754L17.5952 12.626ZM12.596 17.2158L12.4608 16.6056H12.4608L12.596 17.2158ZM7.40337 17.2158L7.53858 16.6056L7.40337 17.2158ZM7.40337 2.78421L7.53858 3.39441L7.40337 2.78421ZM12.596 2.78421L12.7312 2.17401V2.17401L12.596 2.78421ZM7.02514 17.132L6.88993 17.7422L7.02514 17.132ZM12.9742 17.132L13.1094 17.7422L12.9742 17.132ZM12.9742 2.86802L12.839 3.47821L12.9742 2.86802ZM7.02514 2.86802L6.88993 2.25782V2.25782L7.02514 2.86802ZM15.5775 12.0864L15.4654 12.7012H15.4654L15.5775 12.0864ZM15.5286 12.0775L15.6407 11.4626H15.6407L15.5286 12.0775ZM15.5286 7.92253L15.6407 8.53739L15.6407 8.53739L15.5286 7.92253ZM15.5775 7.91362L15.4654 7.29876L15.4654 7.29876L15.5775 7.91362ZM17.4997 8.73941C17.8159 8.87775 18.1845 8.73352 18.3228 8.41728C18.4611 8.10103 18.3169 7.73252 18.0007 7.59419L17.4997 8.73941ZM18.0007 12.4058C18.3169 12.2675 18.4611 11.899 18.3228 11.5827C18.1845 11.2665 17.8159 11.1223 17.4997 11.2606L18.0007 12.4058ZM13.8148 10.5235L13.2138 10.6952L13.8148 10.5235ZM13.8148 9.47649L14.4158 9.64815L13.8148 9.47649ZM7.02514 2.86802L7.16035 3.47822L7.53858 3.39441L7.40337 2.78421L7.26815 2.17401L6.88993 2.25782L7.02514 2.86802ZM12.596 2.78421L12.4608 3.39441L12.839 3.47821L12.9742 2.86802L13.1094 2.25782L12.7312 2.17401L12.596 2.78421ZM12.9742 17.132L12.839 16.5218L12.4608 16.6056L12.596 17.2158L12.7312 17.826L13.1094 17.7422L12.9742 17.132ZM7.40337 17.2158L7.53858 16.6056L7.16035 16.5218L7.02514 17.132L6.88993 17.7422L7.26816 17.826L7.40337 17.2158ZM2.40417 12.626L3.01075 12.4754C2.60709 10.8498 2.60709 9.15017 3.01075 7.52458L2.40417 7.37396L1.79759 7.22333C1.34481 9.04675 1.34481 10.9533 1.79759 12.7767L2.40417 12.626ZM17.5952 7.37396L16.9886 7.52458C17.3923 9.15017 17.3923 10.8498 16.9886 12.4754L17.5952 12.626L18.2018 12.7767C18.6545 10.9533 18.6545 9.04675 18.2018 7.22334L17.5952 7.37396ZM12.596 17.2158L12.4608 16.6056C10.8397 16.9648 9.15966 16.9648 7.53858 16.6056L7.40337 17.2158L7.26816 17.826C9.06736 18.2247 10.932 18.2247 12.7312 17.826L12.596 17.2158ZM7.40337 2.78421L7.53858 3.39441C9.15966 3.0352 10.8397 3.0352 12.4608 3.39441L12.596 2.78421L12.7312 2.17401C10.932 1.77533 9.06736 1.77533 7.26815 2.17401L7.40337 2.78421ZM7.02514 17.132L7.16035 16.5218C5.12156 16.07 3.51414 14.5027 3.01075 12.4754L2.40417 12.626L1.79759 12.7767C2.41529 15.2643 4.38781 17.1878 6.88993 17.7422L7.02514 17.132ZM12.9742 17.132L13.1094 17.7422C15.6115 17.1878 17.5841 15.2643 18.2018 12.7767L17.5952 12.626L16.9886 12.4754C16.4852 14.5027 14.8778 16.07 12.839 16.5218L12.9742 17.132ZM12.9742 2.86802L12.839 3.47821C14.8778 3.92998 16.4852 5.49733 16.9886 7.52458L17.5952 7.37396L18.2018 7.22334C17.5841 4.73573 15.6115 2.81225 13.1094 2.25782L12.9742 2.86802ZM7.02514 2.86802L6.88993 2.25782C4.38781 2.81225 2.41529 4.73573 1.79759 7.22333L2.40417 7.37396L3.01075 7.52458C3.51414 5.49733 5.12157 3.92998 7.16035 3.47822L7.02514 2.86802ZM15.5775 12.0864L15.6896 11.4715L15.6407 11.4626L15.5286 12.0775L15.4165 12.6923L15.4654 12.7012L15.5775 12.0864ZM15.5286 7.92253L15.6407 8.53739L15.6896 8.52848L15.5775 7.91362L15.4654 7.29876L15.4165 7.30767L15.5286 7.92253ZM15.5775 7.91362L15.6896 8.52849C16.3005 8.4171 16.9307 8.49054 17.4997 8.73941L17.7502 8.1668L18.0007 7.59419C17.2038 7.24561 16.321 7.14274 15.4654 7.29876L15.5775 7.91362ZM15.5775 12.0864L15.4654 12.7012C16.321 12.8573 17.2038 12.7544 18.0007 12.4058L17.7502 11.8332L17.4997 11.2606C16.9307 11.5095 16.3005 11.5829 15.6896 11.4715L15.5775 12.0864ZM13.8148 10.5235L14.4158 10.3519C14.3501 10.1219 14.3501 9.87811 14.4158 9.64815L13.8148 9.47649L13.2138 9.30482C13.0841 9.75919 13.0841 10.2408 13.2138 10.6952L13.8148 10.5235ZM15.5286 7.92253L15.4165 7.30766C14.3621 7.49992 13.5082 8.27417 13.2138 9.30482L13.8148 9.47649L14.4158 9.64815C14.5795 9.07483 15.0544 8.64429 15.6407 8.53739L15.5286 7.92253ZM15.5286 12.0775L15.6407 11.4626C15.0544 11.3557 14.5795 10.9252 14.4158 10.3519L13.8148 10.5235L13.2138 10.6952C13.5082 11.7258 14.3621 12.5001 15.4165 12.6923L15.5286 12.0775Z" fill="#2D5BFF"/>
</svg>
