<svg width="20" height="20" viewBox="0 0 20 20" fill="none" xmlns="http://www.w3.org/2000/svg">
<path fill-rule="evenodd" clip-rule="evenodd" d="M12.5254 2.77525C10.8617 2.40825 9.13761 2.40825 7.47398 2.77525L7.12597 2.85202C4.80253 3.36458 2.97079 5.1428 2.39716 7.44266C1.97829 9.12204 1.97829 10.878 2.39716 12.5573C2.97079 14.8572 4.80253 16.6354 7.12597 17.148L7.47398 17.2248C9.13761 17.5917 10.8617 17.5917 12.5254 17.2248L12.8734 17.148C15.1968 16.6354 17.0286 14.8572 17.6022 12.5573C18.0211 10.878 18.0211 9.12204 17.6022 7.44266C17.0286 5.1428 15.1968 3.36458 12.8734 2.85202L12.5254 2.77525ZM14.9525 8.17315C15.2666 8.11991 15.5846 8.10095 15.9002 8.11559C16.247 8.13167 16.5199 8.40211 16.5665 8.74466C16.6799 9.57773 16.6799 10.4223 16.5665 11.2553C16.5199 11.5979 16.247 11.8683 15.9002 11.8844C15.5846 11.899 15.2666 11.8801 14.9524 11.8269L14.8908 11.8164C14.0725 11.6777 13.4403 11.1256 13.2265 10.4299C13.14 10.1486 13.14 9.85142 13.2265 9.57009C13.4403 8.87438 14.0725 8.32229 14.8908 8.1836L14.9525 8.17315ZM6.121 7.4811C6.121 7.20287 6.3475 6.97732 6.62691 6.97732L9.99969 6.97732C10.2791 6.97732 10.5056 7.20287 10.5056 7.4811C10.5056 7.75933 10.2791 7.98488 9.99969 7.98488H6.62691C6.3475 7.98488 6.121 7.75933 6.121 7.4811Z" fill="#2D5BFF"/>
</svg>
