<svg width="60" height="60" viewBox="0 0 60 60" fill="none" xmlns="http://www.w3.org/2000/svg">
<rect width="60" height="60" rx="30" fill="#2D5BFF"/>
<path d="M24.906 22.537C24.8149 22.483 24.7111 22.4541 24.6052 22.4531C24.4993 22.4522 24.3951 22.4793 24.3031 22.5318C24.211 22.5842 24.1345 22.66 24.0813 22.7516C24.0281 22.8431 24 22.9471 24 23.053V36.947C24 37.0529 24.0281 37.1569 24.0813 37.2485C24.1345 37.34 24.211 37.4159 24.3031 37.4683C24.3951 37.5207 24.4993 37.5478 24.6052 37.5469C24.7111 37.546 24.8149 37.517 24.906 37.463L36.629 30.516C36.7185 30.4629 36.7927 30.3874 36.8442 30.2969C36.8957 30.2064 36.9228 30.1041 36.9228 30C36.9228 29.8959 36.8957 29.7936 36.8442 29.7031C36.7927 29.6127 36.7185 29.5371 36.629 29.484L24.906 22.537Z" fill="white" stroke="white" stroke-width="1.5" stroke-linecap="round" stroke-linejoin="round"/>
</svg>
