<svg width="24" height="24" viewBox="0 0 24 24" fill="none" xmlns="http://www.w3.org/2000/svg">
<path d="M12 1.50781C14.1966 1.50781 15.9766 3.2669 15.9766 5.4375V10.6875C15.9766 12.8581 14.1966 14.6172 12 14.6172C9.80345 14.6172 8.02344 12.8581 8.02344 10.6875V5.4375C8.02344 3.2669 9.80345 1.50781 12 1.50781ZM12 3.27344C10.7747 3.27344 9.78906 4.24711 9.78906 5.4375V10.6875C9.78906 11.8779 10.7747 12.8516 12 12.8516C13.2253 12.8516 14.2109 11.8779 14.2109 10.6875V5.4375C14.2109 4.24711 13.2253 3.27344 12 3.27344ZM12.8428 18.3213L12.8359 18.2588V20.7188H12.8438V20.7266H16.3428C16.6578 20.7266 16.9141 21.0562 16.9141 21.4688V22.3125C16.9141 22.3625 16.8983 22.4079 16.873 22.4404C16.8478 22.4729 16.8132 22.4922 16.7764 22.4922H7.22363C7.18676 22.4922 7.15218 22.4729 7.12695 22.4404C7.10172 22.4079 7.08594 22.3625 7.08594 22.3125V21.4688C7.08594 21.0562 7.34221 20.7266 7.65723 20.7266H11.0625V20.7188H11.0703V18.3184H11.1279L11.0635 18.3105C7.23767 17.8493 4.27344 14.5905 4.27344 10.6406C4.27344 10.5418 4.35431 10.4609 4.45312 10.4609H5.85938C5.95819 10.4609 6.03906 10.5418 6.03906 10.6406C6.03906 13.9332 8.7074 16.6016 12 16.6016C15.2926 16.6016 17.9609 13.9332 17.9609 10.6406C17.9609 10.5418 18.0418 10.4609 18.1406 10.4609H19.5469C19.6457 10.4609 19.7266 10.5418 19.7266 10.6406C19.7266 14.6233 16.7131 17.8998 12.8428 18.3213Z" fill="#5A5F6B" stroke="#5A5F6B" stroke-width="0.015625"/>
</svg>
